<?xml version="1.0" encoding="UTF-8" standalone="no"?>
<!-- Created with Inkscape (http://www.inkscape.org/) -->

<svg
   xmlns:dc="http://purl.org/dc/elements/1.1/"
   xmlns:cc="http://creativecommons.org/ns#"
   xmlns:rdf="http://www.w3.org/1999/02/22-rdf-syntax-ns#"
   xmlns:svg="http://www.w3.org/2000/svg"
   xmlns="http://www.w3.org/2000/svg"
   xmlns:sodipodi="http://sodipodi.sourceforge.net/DTD/sodipodi-0.dtd"
   xmlns:inkscape="http://www.inkscape.org/namespaces/inkscape"
   id="svg2"
   version="1.1"
   inkscape:version="0.48.5 r10040"
   width="13.295126"
   height="16.000002"
   sodipodi:docname="lattes.svg">
  <metadata
     id="metadata8">
    <rdf:RDF>
      <cc:Work
         rdf:about="">
        <dc:format>image/svg+xml</dc:format>
        <dc:type
           rdf:resource="http://purl.org/dc/dcmitype/StillImage" />
        <dc:title />
      </cc:Work>
    </rdf:RDF>
  </metadata>
  <defs
     id="defs6" />
  <sodipodi:namedview
     pagecolor="#ffffff"
     bordercolor="#666666"
     borderopacity="1"
     objecttolerance="10"
     gridtolerance="10"
     guidetolerance="10"
     inkscape:pageopacity="0"
     inkscape:pageshadow="2"
     inkscape:window-width="1366"
     inkscape:window-height="702"
     id="namedview4"
     showgrid="false"
     fit-margin-top="0"
     fit-margin-left="0"
     fit-margin-right="0"
     fit-margin-bottom="0"
     inkscape:zoom="16"
     inkscape:cx="17.675763"
     inkscape:cy="6.0576611"
     inkscape:window-x="0"
     inkscape:window-y="27"
     inkscape:window-maximized="1"
     inkscape:current-layer="svg2"
     units="px"
     showguides="true"
     inkscape:guide-bbox="true">
    <sodipodi:guide
       orientation="1,0"
       position="6.6475,13.003906"
       id="guide3008" />
  </sodipodi:namedview>
  <path
     style="fill:#428bca"
     d="m 3.3306006,15.987589 c -0.01768,-0.0112 -0.152831,-0.325368 -0.252671,-0.587127 -0.01664,-0.04376 -0.05944,-0.149088 -0.09499,-0.234129 -0.157656,-0.376975 -0.188344,-0.453239 -0.188344,-0.467999 0,-0.0087 -0.01984,-0.05696 -0.04416,-0.107288 -0.02432,-0.0504 -0.04416,-0.09857 -0.04416,-0.107128 0,-0.01704 -0.07824,-0.189639 -0.105152,-0.231991 -0.02544,-0.04 -0.271095,-0.635776 -0.331511,-0.803967 -0.03696,-0.103 -0.108336,-0.287168 -0.150576,-0.388736 -0.02024,-0.04856 -0.05032,-0.124127 -0.06696,-0.167856 -0.03904,-0.10268 -0.222519,-0.555727 -0.257655,-0.636111 -0.04352,-0.09954 -0.05344,-0.124591 -0.111936,-0.282712 -0.03056,-0.08261 -0.06648,-0.174047 -0.07976,-0.203199 -0.02568,-0.05624 -0.195928,-0.475928 -0.2294,-0.565432 -0.01088,-0.0292 -0.02952,-0.0704 -0.04136,-0.09161 -0.01184,-0.0212 -0.02152,-0.05 -0.02152,-0.06384 0,-0.01392 -0.01472,-0.04424 -0.03272,-0.06744 -0.018,-0.02321 -0.05856,-0.109734 -0.09014,-0.192341 -0.0316,-0.08261 -0.07992,-0.205848 -0.107496,-0.27388 -0.02752,-0.068 -0.08706,-0.215128 -0.13226402,-0.326889 -0.0452,-0.111751 -0.105007,-0.2588549 -0.132887,-0.3268792 -0.02784,-0.068001 -0.0873,-0.2191037 -0.13204,-0.335728 -0.044727,-0.1166155 -0.098031,-0.2517912 -0.118415,-0.3003837 -0.10836,-0.2583753 -0.126376,-0.3452553 -0.07128,-0.3436633 0.01704,4.879e-4 0.09454,0.01592 0.17228,0.03424 0.07776,0.01832 0.181112,0.0424 0.229704,0.05344 0.04856,0.01104 0.13605602,0.03112 0.19436802,0.044561 0.05832,0.013441 0.153727,0.033121 0.212039,0.04376 0.05832,0.01064 0.145776,0.030321 0.194368,0.043681 0.150032,0.041361 0.611831,0.1463758 0.742119,0.168776 0.068,0.01168 0.163448,0.0328 0.21204,0.04696 0.09554,0.02776 0.28144,0.06128 0.574263,0.1035202 0.992743,0.1431921 2.153334,0.1880959 2.941997,0.1138239 0.761918,-0.071761 1.116287,-0.1258076 1.395902,-0.2129677 0.05832,-0.01816 0.241192,-0.069281 0.406408,-0.1136075 C 8.1462276,9.1061905 8.3433146,9.0417348 8.6379066,8.9231663 9.165834,8.7106788 9.682858,8.4222472 10.020257,8.1519678 c 0.154088,-0.1234317 0.509272,-0.4820159 0.586088,-0.5917033 0.02864,-0.04096 0.0624,-0.080696 0.07496,-0.088344 0.06192,-0.03776 0.400488,-0.6268077 0.400488,-0.6967276 0,-0.01416 0.0072,-0.03328 0.01568,-0.042481 0.02072,-0.02216 0.0688,-0.1907914 0.11008,-0.3861197 0.026,-0.1229196 0.03328,-0.2329511 0.03352,-0.5035833 3.68e-4,-0.4533036 -0.03512,-0.6810545 -0.179296,-1.1502622 -0.02344,-0.076401 -0.131632,-0.3609676 -0.164536,-0.4329034 -0.05224,-0.1142563 -0.130376,-0.3209279 -0.141848,-0.3752797 -0.0064,-0.03144 -0.01944,-0.06176 -0.0284,-0.06728 -0.009,-0.0056 -0.01656,-0.02352 -0.01688,-0.040001 -3.35e-4,-0.0164 -0.01592,-0.06168 -0.03472,-0.1005596 -0.02448,-0.05072 -0.03432,-0.1094238 -0.03472,-0.2079997 -5.67e-4,-0.1294238 0.0016,-0.1384638 0.04336,-0.1573517 0.03465,-0.015761 0.06336,-0.01376 0.13548,0.00952 0.07936,0.0256 0.124544,0.06304 0.340336,0.2817276 0.136856,0.1387039 0.3522,0.3702156 0.478535,0.514479 0.126345,0.1442646 0.270225,0.3069598 0.319744,0.3615443 0.179912,0.1983115 0.436863,0.563367 0.559263,0.7945508 0.03936,0.07432 0.08886,0.162992 0.109984,0.1970076 0.09416,0.1515759 0.329215,0.6807834 0.380624,0.8569835 0.0085,0.02912 0.03576,0.1123594 0.06064,0.1849113 0.0248,0.072561 0.04512,0.1480799 0.04512,0.167856 0,0.01976 0.01128,0.071761 0.0252,0.1154796 0.100294,0.3151918 0.180368,1.0773752 0.149432,1.4224065 -0.03568,0.3980238 -0.09917,0.7887668 -0.175104,1.0778464 -0.0204,0.077761 -0.04472,0.1718161 -0.054,0.2090484 -0.03592,0.1436158 -0.250905,0.6725104 -0.3768,0.9268544 -0.05432,0.109681 -0.09871,0.206544 -0.09871,0.215256 0,0.0508 -0.496823,0.836887 -0.574448,0.908951 -0.03072,0.02848 -0.259407,0.309192 -0.34683,0.425679 -0.138705,0.184809 -0.672,0.714199 -0.898696,0.892112 -0.0632,0.0496 -0.154608,0.124159 -0.203199,0.165743 -0.08644,0.074 -0.281288,0.223624 -0.588672,0.452127 -0.15708,0.116769 -0.227511,0.16272 -0.551023,0.359496 -0.179056,0.10892 -0.236159,0.141464 -0.503584,0.287048 -0.068,0.03704 -0.163447,0.09023 -0.212039,0.118191 -0.04856,0.028 -0.2036394,0.106505 -0.3445524,0.174504 -0.263303,0.127064 -0.311295,0.149304 -0.432912,0.200648 -0.03888,0.0164 -0.09055,0.04304 -0.114848,0.05912 -0.04968,0.03297 -0.422039,0.197649 -0.446871,0.197649 -0.0088,0 -0.04112,0.01088 -0.07176,0.02408 -0.03064,0.01328 -0.08748,0.03632 -0.126351,0.0512 -0.03888,0.01488 -0.13032,0.05056 -0.203208,0.07928 -0.163992,0.06464 -0.240879,0.0919 -0.309216,0.10964 -0.02912,0.0072 -0.258887,0.08241 -0.510526,0.166312 -0.251632,0.08391 -0.467392,0.152544 -0.479464,0.152544 -0.01208,0 -0.06464,0.01256 -0.116752,0.02792 -0.115432,0.03392 -0.234191,0.06648 -0.386343,0.105712 -0.0632,0.01632 -0.150632,0.03992 -0.194368,0.0524 -0.118344,0.03384 -0.397568,0.09744 -0.697951,0.158833 -0.07776,0.01592 -0.19304,0.04 -0.256208,0.0536 -0.0632,0.0136 -0.178464,0.03728 -0.256208,0.05272 -0.07776,0.01536 -0.186959,0.03944 -0.242695,0.05344 -0.113192,0.02848 -0.154048,0.03104 -0.184296,0.01184 z m 2.34415,-6.6943285 c -0.04376,-0.0032 -0.155056,-0.01848 -0.247376,-0.03312 -0.09233,-0.01464 -0.247376,-0.03904 -0.34456,-0.054161 -0.09718,-0.01512 -0.236336,-0.03816 -0.309223,-0.051201 -0.120008,-0.02152 -0.229032,-0.03904 -0.6096,-0.097991 -0.068,-0.01056 -0.183327,-0.02664 -0.256207,-0.03576 -0.07288,-0.00912 -0.176256,-0.02416 -0.229712,-0.03336 -0.05344,-0.0092 -0.184648,-0.0296 -0.291544,-0.0452 -0.106904,-0.015681 -0.265935,-0.039841 -0.353399,-0.053681 -0.08746,-0.01384 -0.250464,-0.03752 -0.362224,-0.05264 C 2.4808336,8.8104695 2.3487936,8.7909493 1.9552826,8.7300935 1.5175306,8.6624136 1.4282996,8.6489575 1.2484996,8.6235821 0.52557258,8.5215339 0.52808458,8.522222 0.48057258,8.4146376 c -0.01776,-0.040239 -0.04608,-0.1368077 -0.06288,-0.2145516 -0.090408,-0.4185512 -0.130336,-0.5948954 -0.160008,-0.7067828 -0.01288,-0.048561 -0.03648,-0.167864 -0.05248,-0.2650481 -0.016,-0.097184 -0.0396,-0.2323599 -0.05256,-0.3003838 -0.02368,-0.1246716 -0.0608,-0.4291753 -0.09798,-0.803967 C 0.03634458,5.939297 -0.00109542,5.213914 2.4577959e-5,5.0637221 6.0057796e-4,4.9818021 0.04874458,4.4406505 0.07234458,4.2509143 c 0.08771,-0.7053587 0.216936,-1.1525663 0.510544,-1.7668855 0.03944,-0.08256 0.229535,-0.4130555 0.294759,-0.5124955 0.11124,-0.1696157 0.30394402,-0.4187594 0.38263202,-0.4947033 0.04536,-0.04376 0.112936,-0.1161039 0.150192,-0.1607678 0.143607,-0.1721199 0.532127,-0.47951954 0.818711,-0.64776732 0.194631,-0.1142559 0.260463,-0.1454958 0.547759,-0.2599517 0.613103,-0.24423972 1.100999,-0.34455158 1.943662,-0.39960755 0.558823,-0.0364796 1.489582,0.0440797 2.191037,0.18964776 0.200712,0.0416796 0.563207,0.12714386 0.662615,0.15625582 0.101952,0.0298403 0.16856,0.0479197 0.388735,0.1055599 0.149128,0.0390404 0.586088,0.17975982 0.681448,0.21948772 0.02369,0.00984 0.1344484,0.0507996 0.2462084,0.0909359 0.207991,0.0747199 0.462599,0.17743179 0.697951,0.28148777 0.03888,0.0172 0.09851,0.043599 0.132519,0.058639 0.229737,0.1015759 0.271929,0.1186959 0.292568,0.1186959 0.01272,0 0.07536,0.051439 0.139159,0.1143358 0.08042,0.0792 0.116033,0.1276559 0.116033,0.1577439 0,0.05016 -0.07416,0.1165518 -0.130488,0.1168398 -0.02056,1.12e-4 -0.07712,0.0124 -0.12572,0.02736 -0.07968,0.024481 -0.114367,0.0244 -0.353391,-8e-4 -0.57016,-0.0604 -0.749352,-0.07944 -0.936495,-0.099376 -0.1069044,-0.01144 -0.4709124,-0.02432 -0.8089114,-0.02872 -0.49912,-0.0064 -0.656759,-0.0024 -0.839303,0.02072 -0.247161,0.0316 -0.601215,0.091992 -0.684183,0.1167437 -0.401136,0.1196651 -0.704479,0.2504729 -0.989255,0.4265767 -0.129824,0.080288 -0.331464,0.2723436 -0.418128,0.3982714 -0.140975,0.2048319 -0.350743,0.6536394 -0.350743,0.7504232 0,0.01888 -0.0072,0.04832 -0.01664,0.06544 -0.0092,0.017121 -0.03352,0.1338078 -0.05424,0.2593196 -0.03096,0.1879278 -0.03744,0.3014797 -0.03704,0.6435752 2.96e-4,0.2284638 0.0091,0.4789998 0.0196,0.5567438 0.01048,0.077761 0.02632,0.2009994 0.03528,0.2738793 0.04664,0.3810558 0.11276,0.708431 0.253503,1.2545506 0.130936,0.5080873 0.399352,1.3319105 0.459544,1.4104304 0.02056,0.026801 0.09961,0.2164077 0.09973,0.2391671 0,0.01272 0.09493,0.2390647 0.186176,0.4442563 0.09158,0.2059516 0.286279,0.6960067 0.286279,0.725567 -9.119205,-0.4504956 -0.455311,-1.6097428 0.0404,0.079681 0.02688,0.093808 -0.04104,0.1266876 -0.230063,0.1112714 z M 7.9894756,7.308615 c -0.07288,-0.008 -0.200113,-0.03208 -0.28272,-0.053521 -0.0826,-0.02144 -0.178112,-0.04584 -0.21224,-0.054161 -0.05544,-0.01352 -0.133648,-0.04192 -0.238335,-0.086488 -0.01944,-0.00832 -0.07512,-0.03128 -0.123689,-0.051041 -0.04856,-0.01976 -0.140032,-0.064081 -0.203199,-0.098439 -0.0632,-0.034319 -0.15428,-0.08355 -0.202472,-0.1093507 -0.09821,-0.052558 -0.264047,-0.1694781 -0.320831,-0.2261427 -0.02056,-0.020559 -0.09212,-0.08288 -0.159024,-0.1385837 -0.385504,-0.3209591 -0.724959,-0.805127 -0.827167,-1.1797746 -0.0172,-0.063201 -0.03968,-0.1347357 -0.04984,-0.1590319 -0.01016,-0.02432 -0.02456,-0.076001 -0.032,-0.1148476 -0.0072,-0.03888 -0.0268,-0.1064642 -0.04304,-0.1501917 -0.03856,-0.1037443 -0.03304,-0.5770153 0.0072,-0.6255357 0.01376,-0.01656 0.0308,-0.063521 0.03792,-0.1042795 0.0072,-0.0408 0.03024,-0.1178882 0.05152,-0.1713359 0.02128,-0.05344 0.04312,-0.1130879 0.04856,-0.1325279 0.01272,-0.04576 0.131544,-0.2233277 0.223959,-0.3346476 0.09754,-0.1175039 0.387416,-0.3305516 0.564456,-0.4148634 0.222864,-0.1061359 0.436399,-0.1552559 0.817791,-0.1881119 0.110583,-0.00952 0.22244,4.241e-4 0.589695,0.05248 0.07976,0.011281 0.448504,0.113768 0.547767,0.1521999 0.05344,0.02072 0.11716,0.043919 0.141576,0.05152 0.0837,0.02624 0.4631844,0.2304397 0.5981364,0.3218717 0.07424,0.05032 0.191336,0.1368877 0.260271,0.1924477 0.06896,0.055599 0.141416,0.1096319 0.161064,0.1201438 0.01968,0.01048 0.118304,0.1128479 0.219223,0.2273919 0.100921,0.1145515 0.192433,0.2162236 0.203353,0.2259438 0.02672,0.02376 0.199256,0.2937437 0.266935,0.4176792 0.06416,0.1175603 0.181449,0.4051519 0.181449,0.4450395 0,0.01536 0.01192,0.07368 0.02648,0.1296316 0.0304,0.1168244 0.0352,0.5154154 0.008,0.6420879 -0.0096,0.04376 -0.02168,0.1113194 -0.02712,0.1501918 -0.0056,0.03888 -0.01848,0.094535 -0.02896,0.1236876 -0.04217,0.1173035 -0.159368,0.3540074 -0.200592,0.4050871 -0.203472,0.252152 -0.246263,0.2956157 -0.373135,0.3790477 -0.07576,0.04976 -0.15364,0.1021362 -0.173136,0.1163283 -0.0388,0.02824 -0.386528,0.1504318 -0.582983,0.2048876 -0.142472,0.039521 -0.6490804,0.059841 -0.8746484,0.0352 z"
     id="path2987"
     inkscape:connector-curvature="0"
     sodipodi:nodetypes="cssssssscccssccsccssssscssssssssssssscsscsscscccsscsssscccccsssssscsssssssssssssssssssssssscsssssssssssssssssssssscssssssscsssssscssssssssscscccsscsccsssssssscssssssssssscssscsccsssssssssscs" />
</svg>
